<svg width="166" height="46" viewBox="0 0 166 46" fill="none" xmlns="http://www.w3.org/2000/svg">
<path d="M56.6442 6.56059V3.00195H60.8967V6.56059H56.6442ZM57.0167 34.3091V14.91H53.606L53.9809 11.826H60.8507V34.3091H57.0191H57.0167Z" fill="#090506"/>
<path d="M75.892 42.8865C74.1856 42.8865 72.5142 42.7906 70.8727 42.6012C69.2637 42.4119 67.8796 42.1118 66.7203 41.7011V38.4745C68.007 38.8852 69.4561 39.2025 71.0651 39.4238C72.6741 39.6451 74.2181 39.7558 75.6996 39.7558C78.1131 39.7558 79.882 39.6132 81.0088 39.3279C82.1356 39.0426 82.6978 38.3171 82.6978 37.1465C82.6978 36.3251 82.393 35.7397 81.7808 35.3905C81.2012 35.0437 80.1569 34.8691 78.6428 34.8691H72.5591C68.3443 34.8691 66.2356 33.4772 66.2356 30.6957C66.2356 29.7783 66.5254 28.9102 67.105 28.0863C67.7172 27.2329 68.6166 26.6329 69.8084 26.2836C68.5217 25.6516 67.5723 24.781 66.9601 23.6743C66.348 22.5356 66.0432 21.1928 66.0432 19.6435C66.0432 16.83 66.8652 14.7888 68.5042 13.5247C70.1781 12.2286 72.719 11.5793 76.1319 11.5793C76.8389 11.5793 77.5635 11.6433 78.303 11.7687C79.075 11.8646 79.6697 11.9581 80.0894 12.054H88.3442L88.1993 14.7101H84.0469C84.7864 15.3101 85.3186 16.0381 85.6409 16.8915C85.9632 17.7129 86.1231 18.6302 86.1231 19.6435C86.1231 22.1421 85.3836 24.0875 83.902 25.477C82.4204 26.837 80.1519 27.5158 77.0963 27.5158C76.5816 27.5158 76.1144 27.501 75.6972 27.469C75.3099 27.4051 74.8452 27.3436 74.298 27.2797C73.3012 27.3116 72.3667 27.5969 71.4973 28.133C70.6278 28.6397 70.1931 29.3037 70.1931 30.1251C70.1931 30.6637 70.403 31.0572 70.8202 31.3105C71.2699 31.5638 72.0744 31.6892 73.2337 31.6892H79.5572C81.8408 31.6892 83.5947 32.1467 84.8189 33.064C86.0407 33.9493 86.6528 35.2626 86.6528 37.0014C86.6528 39.2148 85.7184 40.7494 83.852 41.6028C81.9857 42.4561 79.3299 42.8841 75.887 42.8841L75.892 42.8865ZM76.1344 24.5769C78.4204 24.5769 79.997 24.2129 80.8639 23.4849C81.7334 22.757 82.1681 21.4757 82.1681 19.6435C82.1681 17.8113 81.7009 16.4808 80.769 15.6594C79.867 14.8379 78.323 14.4272 76.1344 14.4272C73.9458 14.4272 72.4167 14.8232 71.4523 15.6126C70.4879 16.4021 70.0032 17.7473 70.0032 19.6435C70.0032 21.3822 70.4529 22.6488 71.3549 23.4382C72.2893 24.1981 73.8808 24.5769 76.1344 24.5769Z" fill="#090506"/>
<path d="M91.3462 34.3044V12.0468H94.9215L95.164 14.5837C96.2591 13.7072 97.5317 12.9866 98.9794 12.4242C100.46 11.8618 102.152 11.5793 104.052 11.5793C106.95 11.5793 109.06 12.2367 110.38 13.5514C111.701 14.8661 112.361 16.9331 112.361 19.75V34.3068H108.4V19.8912C108.4 17.9508 107.998 16.6045 107.193 15.8522C106.388 15.0706 104.842 14.6787 102.555 14.6787C101.137 14.6787 99.802 14.9294 98.5443 15.431C97.2892 15.9325 96.2091 16.6215 95.3091 17.498V34.3092H91.3487L91.3462 34.3044Z" fill="#090506"/>
<path d="M119.008 6.56059V3.00195H123.511V6.56059H119.008ZM119.403 34.3091V14.91H115.792L116.188 11.826H123.462V34.3091H119.405H119.403Z" fill="#090506"/>
<path d="M137.916 35.1671C135.698 35.1671 134.022 34.5754 132.881 33.3919C131.772 32.1762 131.219 30.498 131.219 28.3574V15.0738H127.8V11.9561H131.219V6.34482L135.113 5.14648V11.9561H141.335L141.097 15.0738H135.113V28.1635C135.113 29.5384 135.413 30.5279 136.016 31.137C136.65 31.7113 137.727 31.9997 139.246 31.9997C140.069 31.9997 140.971 31.8406 141.952 31.5199V34.4933C140.78 34.9408 139.435 35.1646 137.916 35.1646V35.1671Z" fill="#090506"/>
<path d="M156.982 35.1645C152.956 35.1645 149.944 34.194 147.949 32.2532C145.953 30.3123 144.954 27.3193 144.954 23.2766C144.954 19.6474 145.811 16.7979 147.521 14.7308C149.263 12.629 152.006 11.5793 155.747 11.5793C157.966 11.5793 159.787 11.9928 161.214 12.8196C162.671 13.6143 163.749 14.7283 164.447 16.1617C165.176 17.5629 165.54 19.1547 165.54 20.9371V25.1878H148.852C148.98 26.9058 149.344 28.26 149.944 29.2453C150.579 30.2331 151.514 30.9485 152.75 31.3941C154.017 31.8075 155.68 32.0155 157.742 32.0155C160.055 32.0155 162.179 31.6169 164.113 30.8223V33.8772C163.131 34.2906 162.021 34.6099 160.786 34.8327C159.583 35.0555 158.313 35.1669 156.982 35.1669V35.1645ZM148.852 22.3681H162.068V20.5064C162.068 18.6596 161.576 17.2435 160.594 16.2558C159.644 15.2383 158.06 14.7283 155.84 14.7283C153.146 14.7283 151.308 15.3646 150.326 16.637C149.344 17.9095 148.852 19.8206 148.852 22.3656V22.3681Z" fill="#090506"/>
<path fill-rule="evenodd" clip-rule="evenodd" d="M26.4624 9.67196C25.1769 9.27051 23.83 9.06431 22.4633 9.06431C22.2242 9.06431 21.9939 9.15864 21.8228 9.32974L4.78223 26.3681C4.50144 25.0892 4.35885 23.7795 4.35885 22.4611C4.35885 17.6263 6.24323 13.0788 9.66318 9.66099C13.0809 6.24103 17.6285 4.35885 22.4633 4.35885C25.6508 4.35885 28.7833 5.19684 31.5233 6.78507C31.747 6.9145 32.03 6.8794 32.2121 6.69293L34.5549 4.35008C34.8138 4.09122 34.7655 3.65907 34.4562 3.46383C30.8695 1.19775 26.7235 0 22.4633 0C16.4592 0 10.8214 2.33627 6.57886 6.57667C2.33627 10.8214 0 16.4614 0 22.4633C0 26.3045 0.987158 30.0974 2.85618 33.4318C3.04045 33.763 3.49015 33.8244 3.75778 33.5568L26.6971 10.6196C26.9999 10.3169 26.8748 9.79919 26.4624 9.67196Z" fill="#090506"/>
<path fill-rule="evenodd" clip-rule="evenodd" d="M41.5352 10.5781C41.34 10.2688 40.9078 10.2183 40.649 10.4772L38.3061 12.82C38.1241 13.0021 38.0846 13.2851 38.214 13.5088C39.8 16.2487 40.6402 19.3813 40.6402 22.5688C40.6402 27.4058 38.7558 31.9511 35.3381 35.3689C31.9181 38.7889 27.3706 40.6732 22.5379 40.6732C21.2217 40.6732 19.9099 40.5306 18.631 40.2499L29.8012 29.277C29.9701 29.1081 30.0666 28.8778 30.0666 28.6365C30.0666 27.2676 29.8626 25.9229 29.459 24.6374C29.3318 24.2294 28.8141 24.0999 28.5113 24.4027L11.4423 41.2743C11.1746 41.5419 11.236 41.9916 11.5673 42.1759C14.9017 44.0449 18.6946 45.0321 22.5357 45.0321C28.5376 45.0321 34.1776 42.6958 38.4202 38.4532C42.6606 34.215 44.9969 28.5729 44.9969 22.5709C44.9969 18.3086 43.7991 14.1626 41.533 10.5781H41.5352Z" fill="#090506"/>
<path fill-rule="evenodd" clip-rule="evenodd" d="M12.3767 35.0903C12.6071 34.8709 12.618 34.5023 12.3965 34.272L10.1984 31.9621C9.97904 31.7317 9.6127 31.7208 9.38236 31.9401L7.30713 33.9079C7.27204 33.9386 7.23694 33.9671 7.20622 33.9978C6.47353 34.6954 6.05673 35.7878 5.74304 36.7333C5.55219 37.3059 5.39205 37.8828 5.26262 38.4554L4.39831 41.5507C4.29521 41.9214 4.74272 42.1934 5.02351 41.9324L9.81452 37.4682C9.95272 37.3695 10.0887 37.2664 10.2094 37.1523L12.3789 35.0881L12.3767 35.0903Z" fill="#090506"/>
<path fill-rule="evenodd" clip-rule="evenodd" d="M37.0052 4.97974L30.4241 11.5454L11.9336 29.5995C11.723 29.8035 11.7208 30.1413 11.9248 30.3519L14.2304 32.7101C14.4344 32.9207 14.7722 32.9229 14.9828 32.7189L38.0472 10.1919C38.1306 10.1108 38.2008 10.0252 38.2688 9.93308L39.4468 8.78359C39.4753 8.77482 39.5082 8.76165 39.5455 8.74191L42.1735 6.0349C42.2086 6.00419 42.2437 5.97567 42.2744 5.94496C43.0071 5.24737 43.4239 4.15492 43.7376 3.20944C43.9307 2.62811 44.093 2.0424 44.2246 1.45888C44.2707 1.23293 44.0776 1.02891 43.8495 1.06401C43.8495 1.06401 43.0378 1.19563 42.077 1.46326C41.1162 1.73089 40.004 2.09285 39.2713 2.79044L39.2318 2.82774C39.1572 2.85625 39.087 2.89793 39.0256 2.96374L37.7291 4.25802L37.1017 4.8547C37.0622 4.89199 37.0315 4.93587 37.0052 4.97974Z" fill="#090506"/>
</svg>
