<svg width="82" height="83" viewBox="0 0 82 83" fill="none" xmlns="http://www.w3.org/2000/svg">
<path fill-rule="evenodd" clip-rule="evenodd" d="M48.1869 17.6134C45.8461 16.8824 43.3934 16.5069 40.9047 16.5069C40.4693 16.5069 40.0499 16.6787 39.7383 16.9903L8.70823 48.0164C8.19693 45.6875 7.93728 43.3027 7.93728 40.902C7.93728 32.0979 11.3686 23.817 17.5962 17.5935C23.8198 11.3659 32.1006 7.9385 40.9047 7.9385C46.7089 7.9385 52.4132 9.46444 57.4025 12.3565C57.8099 12.5922 58.3252 12.5283 58.6568 12.1888L62.923 7.92252C63.3944 7.45116 63.3065 6.66422 62.7432 6.3087C56.2121 2.18227 48.6623 0.0012207 40.9047 0.0012207C29.9715 0.0012207 19.7054 4.25547 11.9798 11.977C4.25425 19.7066 0 29.9767 0 40.906C0 47.9005 1.79757 54.8072 5.20097 60.879C5.53652 61.4822 6.35541 61.594 6.84276 61.1067L48.6143 19.3391C49.1656 18.7878 48.9379 17.8451 48.1869 17.6134Z" fill="black"/>
<path fill-rule="evenodd" clip-rule="evenodd" d="M75.6338 19.2632C75.2783 18.7 74.4914 18.6081 74.02 19.0794L69.7538 23.3457C69.4222 23.6772 69.3503 24.1925 69.586 24.6C72.4741 29.5892 74.004 35.2935 74.004 41.0977C74.004 49.9058 70.5727 58.1826 64.3491 64.4062C58.1215 70.6338 49.8407 74.0652 41.0406 74.0652C38.6438 74.0652 36.255 73.8055 33.9262 73.2942L54.2667 53.3132C54.5743 53.0056 54.75 52.5862 54.75 52.1468C54.75 49.6541 54.3785 47.2054 53.6435 44.8646C53.4118 44.1216 52.4691 43.8859 51.9179 44.4372L20.8358 75.1597C20.3485 75.647 20.4604 76.4659 21.0635 76.8015C27.1353 80.2049 34.042 82.0024 41.0366 82.0024C51.9658 82.0024 62.2359 77.7482 69.9615 70.0226C77.683 62.305 81.9373 52.0309 81.9373 41.1017C81.9373 33.3402 79.7562 25.7904 75.6298 19.2632H75.6338Z" fill="black"/>
<path fill-rule="evenodd" clip-rule="evenodd" d="M22.5376 63.8989C22.957 63.4994 22.977 62.8283 22.5735 62.4089L18.5709 58.2026C18.1715 57.7832 17.5044 57.7632 17.0849 58.1626L13.306 61.7458C13.2421 61.8017 13.1782 61.8537 13.1223 61.9096C11.7881 63.1799 11.0291 65.1692 10.4579 66.8909C10.1103 67.9334 9.81873 68.984 9.58305 70.0266L8.00918 75.663C7.82143 76.3381 8.63633 76.8334 9.14764 76.3581L17.8719 68.229C18.1235 68.0493 18.3712 67.8615 18.5909 67.6538L22.5415 63.8949L22.5376 63.8989Z" fill="black"/>
<path fill-rule="evenodd" clip-rule="evenodd" d="M67.3849 9.06897L55.4011 21.0248L21.7306 53.9004C21.3471 54.2719 21.3431 54.8871 21.7146 55.2705L25.913 59.5647C26.2845 59.9482 26.8996 59.9522 27.2831 59.5807L69.2824 18.5601C69.4342 18.4123 69.562 18.2566 69.6858 18.0888L71.8309 15.9956C71.8829 15.9796 71.9428 15.9557 72.0107 15.9197L76.7962 10.9904C76.8601 10.9344 76.924 10.8825 76.98 10.8266C78.3142 9.55631 79.0731 7.56699 79.6444 5.84532C79.9959 4.78675 80.2915 3.72019 80.5312 2.65763C80.6151 2.24618 80.2635 1.87468 79.8481 1.9386C79.8481 1.9386 78.3701 2.17827 76.6205 2.66562C74.8708 3.15296 72.8456 3.81207 71.5114 5.08235L71.4395 5.15026C71.3036 5.20219 71.1758 5.27809 71.064 5.39792L68.7032 7.75474L67.5607 8.84127C67.4888 8.90918 67.4329 8.98907 67.3849 9.06897Z" fill="black"/>
</svg>
