<svg width="575" height="189" viewBox="0 0 575 189" fill="none" xmlns="http://www.w3.org/2000/svg">
<path d="M276.387 149V139.2H279.579C281.413 139.2 282.799 140.18 282.799 142.238C282.799 144.24 281.371 145.276 279.621 145.276H277.787V149H276.387ZM277.787 144.016H279.467C280.699 144.016 281.399 143.4 281.399 142.224C281.399 141.076 280.685 140.46 279.467 140.46H277.787V144.016ZM284.67 144.086C284.67 140.824 285.874 138.99 288.142 138.99C290.424 138.99 291.614 140.824 291.614 144.086C291.614 147.25 290.41 149.182 288.142 149.182C285.874 149.182 284.67 147.25 284.67 144.086ZM290.242 144.086C290.242 141.664 289.542 140.278 288.142 140.278C286.742 140.278 286.042 141.552 286.042 144.086C286.042 146.62 286.728 147.894 288.142 147.894C289.556 147.894 290.242 146.62 290.242 144.086ZM299.308 139.2H300.638L299.658 149H297.992L296.83 145.29L295.654 149H293.988L292.994 139.2H294.324L295.052 146.956L296.228 143.162H297.404L298.594 146.942L299.308 139.2ZM302.481 149V139.2H308.529V140.46H303.881V143.442H307.941V144.674H303.881V147.74H308.529V149H302.481ZM316.111 149L313.913 145.01H312.317V149H310.917V139.2H314.179C316.209 139.2 317.273 140.446 317.273 142.056C317.273 143.652 316.321 144.548 315.327 144.828L317.637 149H316.111ZM312.317 143.778H314.151C315.187 143.778 315.873 143.204 315.873 142.112C315.873 140.978 315.131 140.46 314.109 140.46H312.317V143.778ZM319.83 149V139.2H325.878V140.46H321.23V143.442H325.29V144.674H321.23V147.74H325.878V149H319.83ZM328.337 149V139.2H330.997C333.923 139.2 334.945 141.566 334.945 144.03C334.945 146.718 333.699 149 331.109 149H328.337ZM329.737 147.74H331.067C332.971 147.74 333.545 145.864 333.545 144.016C333.545 142.196 333.055 140.46 330.941 140.46H329.737V147.74ZM345.546 149V139.2H348.962C350.936 139.2 351.874 140.334 351.874 141.79C351.874 142.84 351.342 143.512 350.656 143.89V143.918C351.314 144.142 352.224 144.772 352.224 146.2C352.224 147.824 351.048 149 349.116 149H345.546ZM346.946 143.428H348.92C349.97 143.428 350.502 142.798 350.502 141.874C350.502 140.978 349.9 140.432 348.92 140.432H346.946V143.428ZM346.946 147.768H349.116C350.278 147.768 350.824 147.04 350.824 146.172C350.824 145.29 350.292 144.604 348.99 144.604H346.946V147.768ZM358.238 145.108V149H356.838V145.108L353.66 139.2H355.186L357.538 143.596L359.89 139.2H361.416L358.238 145.108Z" fill="white"/>
<g clip-path="url(#clip0_1711_82073)">
<path d="M278.141 161.247L278.678 162.82C279.051 162.166 279.594 161.625 280.249 161.254C280.903 160.883 281.646 160.695 282.398 160.71C284.59 160.71 285.472 161.899 285.894 163.011C286.304 162.282 286.909 161.681 287.64 161.275C288.371 160.869 289.201 160.673 290.037 160.71C292.99 160.71 294.755 162.398 294.755 166.809V180.388H290.612V167.269C290.612 165.505 289.96 164.872 288.963 164.872C287.774 164.872 286.968 165.677 286.968 167.979V180.369H282.825V167.25C282.825 165.447 282.173 164.853 281.018 164.853C279.943 164.853 279.1 165.658 279.1 167.96V180.35H275V161.209L278.141 161.247Z" fill="white"/>
<path d="M311.013 180.926C305.528 180.926 301.309 176.706 301.309 170.799C301.309 165.007 305.528 160.729 310.975 160.729C316.537 160.729 320.032 164.757 320.032 170.588V172.237H305.682C305.781 173.579 306.388 174.834 307.378 175.745C308.368 176.657 309.668 177.158 311.013 177.147C313.699 177.147 315.233 175.536 315.693 174.232L319.567 175.421C318.455 178.471 315.679 180.926 311.013 180.926ZM315.962 168.938C315.874 167.697 315.311 166.537 314.389 165.7C313.467 164.864 312.258 164.416 311.013 164.45C307.868 164.45 306.142 166.56 305.739 168.938H315.962Z" fill="white"/>
<path d="M346.418 180.388H342.621L342.007 178.048C341.288 178.973 340.361 179.716 339.301 180.216C338.242 180.715 337.079 180.959 335.908 180.925C330.576 180.925 326.625 176.399 326.625 170.798C326.625 165.198 330.384 160.729 335.87 160.729C337 160.69 338.125 160.912 339.156 161.378C340.187 161.843 341.097 162.54 341.815 163.414V153.556H346.418V180.388ZM336.56 164.853C333.491 164.853 331.228 167.346 331.228 170.798C331.228 174.251 333.491 176.782 336.56 176.782C339.629 176.782 341.834 174.289 341.834 170.798C341.834 167.308 339.653 164.853 336.56 164.853Z" fill="white"/>
<path d="M370.929 176.322V180.388H353.859V176.322H360.093V165.294H355.49V161.266H364.696V176.341L370.929 176.322ZM359.115 155.915C359.121 155.144 359.43 154.406 359.975 153.861C360.521 153.316 361.259 153.006 362.03 153C362.803 153 363.545 153.307 364.091 153.854C364.638 154.401 364.945 155.142 364.945 155.915C364.945 156.688 364.638 157.43 364.091 157.977C363.545 158.523 362.803 158.831 362.03 158.831C361.257 158.831 360.515 158.523 359.968 157.977C359.422 157.43 359.115 156.688 359.115 155.915Z" fill="white"/>
<path d="M385.315 160.71C389.63 160.71 393.408 162.82 393.408 167.806V180.388H389.649L389.035 178.623C388.268 179.698 386.696 180.925 383.55 180.925C379.868 180.925 376.914 178.662 376.914 175.018C376.914 172.218 378.353 169.609 384.586 168.784L388.805 168.209V167.902C388.805 165.716 387.731 164.412 385.161 164.412C382.668 164.412 381.556 165.601 381.249 167.557L377.144 166.598C378.18 162.705 380.673 160.71 385.315 160.71ZM388.805 171.374L384.893 171.949C382.399 172.294 381.325 173.138 381.325 174.749C381.325 176.188 382.591 177.204 384.816 177.204C386.964 177.204 388.805 175.977 388.805 173.675V171.374Z" fill="white"/>
<path d="M411.631 180.925C405.839 180.925 401.734 176.514 401.734 170.799C401.734 165.083 405.839 160.729 411.631 160.729C415.946 160.729 419.073 163.184 420.262 166.752L416.042 168.19C415.76 167.248 415.174 166.425 414.377 165.85C413.579 165.274 412.614 164.978 411.631 165.006C408.524 165.006 406.357 167.404 406.357 170.837C406.357 174.27 408.543 176.706 411.631 176.706C412.582 176.737 413.516 176.458 414.295 175.911C415.073 175.365 415.653 174.58 415.946 173.676L420.127 175.114C419.509 176.858 418.353 178.36 416.826 179.404C415.299 180.448 413.48 180.981 411.631 180.925Z" fill="white"/>
<path d="M432.841 172.218C432.841 175.574 434.414 176.667 436.562 176.667C438.902 176.667 440.782 175.018 440.782 171.757V161.247H445.385V180.388H441.587L440.935 178.087C440.269 179 439.39 179.737 438.373 180.232C437.357 180.727 436.234 180.965 435.104 180.925C430.789 180.925 428.238 178.432 428.238 172.831V161.247H432.841V172.218Z" fill="white"/>
<path d="M472.951 166.234L468.962 167.577C468.921 166.814 468.587 166.096 468.029 165.575C467.471 165.053 466.734 164.767 465.97 164.776C463.86 164.776 462.402 166.215 462.402 169.341V176.322H467.082V180.389H453.465V176.322H457.991V165.294H453.465V161.267H460.485L460.791 163.223C461.559 162.149 463.668 160.73 466.584 160.73C470.554 160.71 472.582 163.856 472.951 166.234Z" fill="white"/>
<path d="M498.842 166.234L494.852 167.577C494.812 166.814 494.477 166.096 493.92 165.575C493.362 165.053 492.624 164.767 491.86 164.776C489.751 164.776 488.293 166.215 488.293 169.341V176.322H492.973V180.389H479.355V176.322H483.882V165.294H479.355V161.267H486.337L486.644 163.223C487.411 162.149 489.521 160.73 492.436 160.73C496.401 160.71 498.434 163.856 498.842 166.234Z" fill="white"/>
<path d="M514.775 180.926C509.29 180.926 505.07 176.706 505.07 170.799C505.07 165.007 509.29 160.729 514.737 160.729C520.299 160.729 523.789 164.757 523.789 170.588V172.237H509.443C509.543 173.579 510.149 174.834 511.139 175.745C512.13 176.657 513.429 177.158 514.775 177.147C517.46 177.147 518.995 175.536 519.455 174.232L523.329 175.421C522.217 178.471 519.46 180.926 514.775 180.926ZM519.723 168.938C519.636 167.697 519.073 166.537 518.151 165.7C517.229 164.864 516.019 164.416 514.775 164.45C511.63 164.45 509.904 166.56 509.501 168.938H519.723Z" fill="white"/>
<path d="M544.313 169.418C544.313 166.061 542.74 164.968 540.592 164.968C538.252 164.968 536.373 166.618 536.373 169.878V180.388H531.77V161.247H535.567L536.219 163.549C536.885 162.635 537.765 161.898 538.781 161.404C539.798 160.909 540.92 160.671 542.05 160.71C546.365 160.71 548.916 163.204 548.916 168.804V180.388H544.313V169.418Z" fill="white"/>
<path d="M574.999 176.169C574.308 178.163 572.736 180.925 568.401 180.925C564.258 180.925 561.266 178.47 561.266 174.289V165.275H556.625V161.247H561.266V156.375H565.87V161.247H574.121V165.275H565.874V173.944C565.874 175.708 566.833 176.591 568.521 176.591C569.96 176.591 570.708 175.823 571.053 174.634L574.999 176.169Z" fill="white"/>
</g>
<path d="M170.612 19.7608V9.04199H183.421V19.7608H170.612ZM171.734 103.341V44.9096H161.461L162.59 35.6205H183.282V103.341H171.741H171.734Z" fill="white"/>
<path d="M228.591 129.177C223.451 129.177 218.417 128.888 213.472 128.318C208.626 127.748 204.457 126.844 200.965 125.607V115.888C204.841 117.125 209.205 118.081 214.052 118.747C218.898 119.414 223.549 119.747 228.011 119.747C235.281 119.747 240.609 119.318 244.003 118.458C247.397 117.599 249.09 115.414 249.09 111.888C249.09 109.414 248.172 107.651 246.328 106.599C244.582 105.554 241.437 105.028 236.876 105.028H218.552C205.857 105.028 199.505 100.836 199.505 92.4577C199.505 89.6947 200.378 87.0798 202.124 84.5982C203.968 82.0278 206.677 80.2204 210.267 79.1685C206.391 77.2647 203.531 74.6424 201.688 71.309C199.844 67.8793 198.926 63.8347 198.926 59.1679C198.926 50.6936 201.402 44.5453 206.338 40.7378C211.38 36.834 219.034 34.8784 229.313 34.8784C231.443 34.8784 233.625 35.071 235.853 35.4488C238.178 35.7377 239.969 36.0192 241.234 36.3081H266.097L265.661 44.3083H253.154C255.381 46.1158 256.984 48.3084 257.955 50.8788C258.926 53.353 259.407 56.116 259.407 59.1679C259.407 66.6941 257.18 72.5535 252.717 76.7388C248.255 80.8352 241.422 82.8797 232.218 82.8797C230.668 82.8797 229.261 82.8352 228.004 82.7389C226.837 82.5463 225.438 82.3611 223.79 82.1685C220.787 82.2648 217.973 83.1241 215.354 84.739C212.735 86.2649 211.425 88.265 211.425 90.7391C211.425 92.3614 212.058 93.5466 213.314 94.3096C214.669 95.0726 217.092 95.4504 220.584 95.4504H239.631C246.509 95.4504 251.792 96.8282 255.479 99.5912C259.159 102.258 261.003 106.214 261.003 111.451C261.003 118.118 258.188 122.74 252.567 125.31C246.945 127.881 238.946 129.17 228.576 129.17L228.591 129.177ZM229.321 74.0276C236.207 74.0276 240.955 72.9313 243.566 70.7386C246.185 68.546 247.495 64.6866 247.495 59.1679C247.495 53.6493 246.087 49.6418 243.28 47.1676C240.564 44.6935 235.913 43.4564 229.321 43.4564C222.729 43.4564 218.123 44.649 215.218 47.0269C212.313 49.4047 210.854 53.4567 210.854 59.1679C210.854 64.4051 212.208 68.22 214.925 70.5979C217.739 72.8868 222.533 74.0276 229.321 74.0276Z" fill="white"/>
<path d="M275.145 103.327V36.2864H285.914L286.644 43.9277C289.943 41.2877 293.776 39.1171 298.136 37.4231C302.594 35.7291 307.693 34.8784 313.416 34.8784C322.144 34.8784 328.5 36.8584 332.477 40.8184C336.453 44.7783 338.441 51.0043 338.441 59.4889V103.335H326.512V59.9142C326.512 54.0696 325.3 50.0143 322.875 47.7483C320.45 45.3943 315.796 44.2137 308.905 44.2137C304.635 44.2137 300.614 44.969 296.826 46.4797C293.045 47.9903 289.792 50.0656 287.081 52.7056V103.342H275.152L275.145 103.327Z" fill="white"/>
<path d="M358.463 19.7608V9.04199H372.025V19.7608H358.463ZM359.651 103.341V44.9096H348.773L349.969 35.6205H371.879V103.341H359.659H359.651Z" fill="white"/>
<path d="M415.411 105.925C408.732 105.925 403.682 104.143 400.247 100.578C396.907 96.9163 395.241 91.8616 395.241 85.414V45.403H384.941V36.0124H395.241V19.1109L406.97 15.5015V36.0124H425.711L424.993 45.403H406.97V84.8299C406.97 88.971 407.873 91.9514 409.688 93.7861C411.598 95.516 414.841 96.3846 419.417 96.3846C421.898 96.3846 424.615 95.9054 427.57 94.9393V103.896C424.038 105.244 419.987 105.917 415.411 105.917V105.925Z" fill="white"/>
<path d="M472.833 105.918C460.708 105.918 451.636 102.995 445.625 97.149C439.615 91.3029 436.605 82.2878 436.605 70.1111C436.605 59.1797 439.185 50.597 444.336 44.3707C449.583 38.04 457.847 34.8784 469.112 34.8784C475.798 34.8784 481.282 36.1237 485.581 38.6142C489.968 41.0078 493.215 44.3633 495.319 48.6807C497.513 52.9012 498.61 57.6958 498.61 63.0646V75.8677H448.345C448.731 81.0426 449.828 85.1214 451.636 88.0891C453.548 91.0643 456.365 93.2193 460.085 94.5615C463.902 95.8068 468.912 96.4331 475.123 96.4331C482.09 96.4331 488.486 95.2326 494.311 92.839V102.041C491.354 103.286 488.012 104.248 484.291 104.919C480.667 105.59 476.843 105.925 472.833 105.925V105.918ZM448.345 67.3745H488.153V61.7671C488.153 56.2045 486.67 51.9392 483.713 48.964C480.852 45.8994 476.079 44.3633 469.394 44.3633C461.278 44.3633 455.742 46.2796 452.785 50.1124C449.828 53.9451 448.345 59.7016 448.345 67.3671V67.3745Z" fill="white"/>
<path fill-rule="evenodd" clip-rule="evenodd" d="M79.7061 29.1324C75.8341 27.9232 71.7771 27.3021 67.6607 27.3021C66.9405 27.3021 66.2467 27.5863 65.7313 28.1016L14.4043 79.422C13.5586 75.5698 13.1291 71.6252 13.1291 67.6541C13.1291 53.0912 18.8049 39.3938 29.106 29.0994C39.4005 18.7983 53.0978 13.1291 67.6607 13.1291C77.2614 13.1291 86.6969 15.6531 94.9496 20.437C95.6236 20.8268 96.4759 20.7211 97.0244 20.1594L104.081 13.1026C104.861 12.323 104.715 11.0213 103.784 10.4332C92.9806 3.60769 80.4924 0 67.6607 0C49.576 0 32.5947 7.03697 19.8159 19.8092C7.03697 32.5947 0 49.5826 0 67.6607C0 79.2304 2.97337 90.6547 8.60295 100.698C9.15798 101.696 10.5125 101.881 11.3186 101.075L80.4131 31.9868C81.325 31.075 80.9483 29.5156 79.7061 29.1324Z" fill="white"/>
<path fill-rule="evenodd" clip-rule="evenodd" d="M125.103 31.8607C124.515 30.9291 123.213 30.7771 122.434 31.5568L115.377 38.6136C114.828 39.162 114.709 40.0144 115.099 40.6883C119.876 48.9411 122.407 58.3766 122.407 67.9773C122.407 82.5468 116.731 96.2375 106.437 106.532C96.1358 116.833 82.4384 122.509 67.8821 122.509C63.9177 122.509 59.9664 122.079 56.1142 121.234L89.7596 88.183C90.2683 87.6742 90.5591 86.9804 90.5591 86.2536C90.5591 82.1305 89.9446 78.0801 88.7288 74.2081C88.3455 72.9791 86.7862 72.5893 85.8743 73.5011L34.4615 124.319C33.6554 125.125 33.8404 126.48 34.8381 127.035C44.8815 132.665 56.3058 135.638 67.8755 135.638C85.9536 135.638 102.941 128.601 115.72 115.822C128.493 103.056 135.53 86.062 135.53 67.9839C135.53 55.1455 131.922 42.6574 125.096 31.8607H125.103Z" fill="white"/>
<path fill-rule="evenodd" clip-rule="evenodd" d="M37.2801 105.693C37.9739 105.033 38.007 103.923 37.3396 103.229L30.7189 96.2712C30.0581 95.5774 28.9547 95.5443 28.2609 96.2051L22.0102 102.132C21.9045 102.225 21.7988 102.31 21.7063 102.403C19.4994 104.504 18.244 107.795 17.2991 110.642C16.7242 112.367 16.2419 114.105 15.852 115.829L13.2487 125.152C12.9381 126.269 14.2861 127.088 15.1318 126.302L29.5626 112.856C29.9789 112.559 30.3885 112.248 30.7519 111.904L37.2867 105.687L37.2801 105.693Z" fill="white"/>
<path fill-rule="evenodd" clip-rule="evenodd" d="M111.46 14.9991L91.6371 34.7754L35.9425 89.155C35.3082 89.7695 35.3016 90.787 35.9161 91.4213L42.8606 98.5244C43.4751 99.1587 44.4926 99.1653 45.127 98.5508L114.598 30.6985C114.849 30.4541 115.061 30.1964 115.265 29.9189L118.814 26.4565C118.9 26.4301 118.999 26.3905 119.111 26.331L127.027 18.1773C127.132 18.0848 127.238 17.9989 127.331 17.9064C129.538 15.8053 130.793 12.5147 131.738 9.6669C132.319 7.91592 132.808 6.15172 133.205 4.39413C133.344 3.71356 132.762 3.09906 132.075 3.20478C132.075 3.20478 129.63 3.60123 126.736 4.40735C123.842 5.21346 120.492 6.30369 118.285 8.40487L118.166 8.5172C117.941 8.6031 117.73 8.72864 117.545 8.92687L113.64 12.8253L111.75 14.6225C111.631 14.7348 111.539 14.867 111.46 14.9991Z" fill="white"/>
<defs>
<clipPath id="clip0_1711_82073">
<rect width="300" height="27.9253" fill="white" transform="translate(275 153)"/>
</clipPath>
</defs>
</svg>
